<?xml version="1.0" encoding="UTF-8"?>
<!DOCTYPE svg PUBLIC "-//W3C//DTD SVG 1.1//EN" "http://www.w3.org/Graphics/SVG/1.1/DTD/svg11.dtd">
<!-- Creator: CorelDRAW 2020 (64-Bit) -->
<svg xmlns="http://www.w3.org/2000/svg" xml:space="preserve" width="0.939409in" height="0.939413in" version="1.1" style="shape-rendering:geometricPrecision; text-rendering:geometricPrecision; image-rendering:optimizeQuality; fill-rule:evenodd; clip-rule:evenodd"
viewBox="0 0 933.83 933.83"
 xmlns:xlink="http://www.w3.org/1999/xlink"
 xmlns:xodm="http://www.corel.com/coreldraw/odm/2003">
 <defs>
  <style type="text/css">
   <![CDATA[
    .fil0 {fill:#942E2D;fill-rule:nonzero}
   ]]>
  </style>
 </defs>
 <g id="Layer_x0020_1">
  <metadata id="CorelCorpID_0Corel-Layer"/>
  <g id="_2353460215472">
   <path class="fil0" d="M583.63 155.64c0,-75.88 -38.69,-155.64 -116.07,-155.64 -0.23,0 -0.44,0.01 -0.65,0.03 -0.22,-0.02 -0.43,-0.03 -0.66,-0.03 -77.16,0 -116.07,79.76 -116.07,155.64 0,194.55 116.73,311.28 116.73,311.28 0,0 116.72,-116.73 116.72,-311.28z"/>
   <path class="fil0" d="M350.18 778.2c0,75.88 38.69,155.64 116.07,155.64 0.23,0 0.44,-0.01 0.66,-0.03 0.21,0.02 0.41,0.03 0.65,0.03 77.16,0 116.07,-79.76 116.07,-155.64 0,-194.55 -116.72,-311.28 -116.72,-311.28 0,0 -116.73,116.74 -116.73,311.28z"/>
   <path class="fil0" d="M155.64 350.18c-75.88,0 -155.64,38.7 -155.64,116.09 0,0.22 0.01,0.43 0.03,0.65 -0.02,0.21 -0.03,0.43 -0.03,0.65 0,77.16 79.76,116.09 155.64,116.09 194.55,0 311.27,-116.74 311.27,-116.74 0,0 -116.73,-116.73 -311.27,-116.73z"/>
   <path class="fil0" d="M778.19 583.65c75.87,0 155.64,-38.7 155.64,-116.09 0,-0.22 -0.01,-0.44 -0.03,-0.65 0.02,-0.22 0.03,-0.43 0.03,-0.65 0,-77.18 -79.77,-116.09 -155.64,-116.09 -194.56,0 -311.28,116.73 -311.28,116.73 0,0 116.72,116.74 311.28,116.74z"/>
  </g>
 </g>
</svg>
