<?xml version="1.0" encoding="UTF-8"?>
<!DOCTYPE svg PUBLIC "-//W3C//DTD SVG 1.1//EN" "http://www.w3.org/Graphics/SVG/1.1/DTD/svg11.dtd">
<!-- Creator: CorelDRAW 2020 (64-Bit) -->
<svg xmlns="http://www.w3.org/2000/svg" xml:space="preserve" width="1.56571in" height="1.5657in" version="1.1" style="shape-rendering:geometricPrecision; text-rendering:geometricPrecision; image-rendering:optimizeQuality; fill-rule:evenodd; clip-rule:evenodd"
viewBox="0 0 1560.11 1560.1"
 xmlns:xlink="http://www.w3.org/1999/xlink"
 xmlns:xodm="http://www.corel.com/coreldraw/odm/2003">
 <defs>
  <style type="text/css">
   <![CDATA[
    .fil0 {fill:#E49D53;fill-rule:nonzero}
   ]]>
  </style>
 </defs>
 <g id="Layer_x0020_1">
  <metadata id="CorelCorpID_0Corel-Layer"/>
  <g id="_2353351702080">
   <path class="fil0" d="M780.07 658.71c32.69,-62.76 74.5,-122.38 123.31,-176.37 8.72,-172.92 -31.95,-350.13 -122.74,-482.34 -0.21,0.31 -0.38,0.61 -0.56,0.93 -0.2,-0.32 -0.37,-0.62 -0.58,-0.93 -90.77,132.21 -131.46,309.42 -122.74,482.34 48.81,53.99 90.6,113.6 123.32,176.37z"/>
   <path class="fil0" d="M780.07 901.38c-32.72,62.76 -74.51,122.38 -123.32,176.38 -8.72,172.91 31.97,350.12 122.74,482.34 0.21,-0.31 0.38,-0.62 0.58,-0.94 0.18,0.32 0.36,0.64 0.56,0.94 90.79,-132.22 131.46,-309.43 122.74,-482.34 -48.81,-54 -90.62,-113.62 -123.31,-176.38z"/>
   <path class="fil0" d="M901.39 780.05c62.76,32.7 122.38,74.5 176.38,123.31 172.91,8.72 350.12,-31.96 482.34,-122.73 -0.32,-0.21 -0.62,-0.4 -0.94,-0.58 0.32,-0.19 0.62,-0.37 0.94,-0.58 -132.22,-90.77 -309.43,-131.46 -482.34,-122.74 -54,48.81 -113.62,90.62 -176.38,123.32z"/>
   <path class="fil0" d="M658.72 780.05c-62.76,-32.7 -122.38,-74.51 -176.38,-123.32 -172.91,-8.72 -350.12,31.97 -482.34,122.74 0.31,0.21 0.62,0.39 0.94,0.58 -0.32,0.18 -0.64,0.38 -0.94,0.58 132.22,90.77 309.43,131.44 482.34,122.73 54,-48.81 113.62,-90.61 176.38,-123.31z"/>
   <path class="fil0" d="M694.26 694.25c-21.26,-67.49 -33.85,-139.21 -37.53,-211.91 -116.08,-128.44 -270.17,-224.98 -427.84,-254.29 0.07,0.36 0.15,0.72 0.25,1.08 -0.36,-0.1 -0.7,-0.2 -1.06,-0.26 29.3,157.68 125.84,311.76 254.27,427.85 72.71,3.67 144.41,16.26 211.92,37.52z"/>
   <path class="fil0" d="M865.85 865.84c21.26,67.51 33.85,139.22 37.52,211.92 116.1,128.43 270.18,224.97 427.86,254.28 -0.07,-0.37 -0.15,-0.72 -0.25,-1.08 0.36,0.1 0.7,0.18 1.06,0.25 -29.3,-157.67 -125.84,-311.74 -254.27,-427.86 -72.71,-3.67 -144.41,-16.26 -211.92,-37.52z"/>
   <path class="fil0" d="M865.85 694.25c67.51,-21.26 139.21,-33.85 211.92,-37.52 128.43,-116.1 224.97,-270.17 254.27,-427.85 -0.36,0.07 -0.71,0.16 -1.06,0.26 0.09,-0.36 0.18,-0.72 0.25,-1.08 -157.67,29.3 -311.76,125.84 -427.86,254.29 -3.67,72.7 -16.26,144.41 -37.52,211.91z"/>
   <path class="fil0" d="M694.26 865.84c-67.51,21.26 -139.23,33.85 -211.92,37.52 -128.43,116.11 -224.97,270.18 -254.27,427.86 0.36,-0.07 0.71,-0.15 1.06,-0.25 -0.09,0.36 -0.18,0.71 -0.25,1.08 157.67,-29.31 311.76,-125.85 427.84,-254.28 3.68,-72.7 16.28,-144.41 37.53,-211.92z"/>
  </g>
 </g>
</svg>
