<?xml version="1.0" encoding="UTF-8"?>
<!DOCTYPE svg PUBLIC "-//W3C//DTD SVG 1.1//EN" "http://www.w3.org/Graphics/SVG/1.1/DTD/svg11.dtd">
<!-- Creator: CorelDRAW 2020 (64-Bit) -->
<svg xmlns="http://www.w3.org/2000/svg" xml:space="preserve" width="0.939417in" height="0.939417in" version="1.1" style="shape-rendering:geometricPrecision; text-rendering:geometricPrecision; image-rendering:optimizeQuality; fill-rule:evenodd; clip-rule:evenodd"
viewBox="0 0 933.84 933.84"
 xmlns:xlink="http://www.w3.org/1999/xlink"
 xmlns:xodm="http://www.corel.com/coreldraw/odm/2003">
 <defs>
  <style type="text/css">
   <![CDATA[
    .fil0 {fill:#175737;fill-rule:nonzero}
   ]]>
  </style>
 </defs>
 <g id="Layer_x0020_1">
  <metadata id="CorelCorpID_0Corel-Layer"/>
  <g id="_2353354373376">
   <path class="fil0" d="M466.19 933.84c0.26,-0.32 0.5,-0.67 0.73,-0.99 0.23,0.33 0.47,0.67 0.72,0.99 206.56,-257.88 206.56,-675.96 0,-933.84 -0.25,0.32 -0.48,0.66 -0.72,0.99 -0.23,-0.33 -0.47,-0.68 -0.73,-0.99 -206.56,257.88 -206.56,675.96 0,933.84z"/>
   <path class="fil0" d="M-0 466.19c0.32,0.26 0.66,0.5 0.99,0.73 -0.33,0.23 -0.68,0.47 -0.99,0.72 257.86,206.56 675.96,206.56 933.84,0 -0.33,-0.25 -0.67,-0.48 -0.99,-0.72 0.33,-0.23 0.66,-0.47 0.99,-0.73 -257.88,-206.56 -675.98,-206.56 -933.84,0z"/>
  </g>
 </g>
</svg>
