<?xml version="1.0" encoding="UTF-8"?>
<!DOCTYPE svg PUBLIC "-//W3C//DTD SVG 1.1//EN" "http://www.w3.org/Graphics/SVG/1.1/DTD/svg11.dtd">
<!-- Creator: CorelDRAW 2020 (64-Bit) -->
<svg xmlns="http://www.w3.org/2000/svg" xml:space="preserve" width="1.56632in" height="1.56649in" version="1.1" style="shape-rendering:geometricPrecision; text-rendering:geometricPrecision; image-rendering:optimizeQuality; fill-rule:evenodd; clip-rule:evenodd"
viewBox="0 0 1560.73 1560.9"
 xmlns:xlink="http://www.w3.org/1999/xlink"
 xmlns:xodm="http://www.corel.com/coreldraw/odm/2003">
 <defs>
  <style type="text/css">
   <![CDATA[
    .fil0 {fill:#64A6BC;fill-rule:nonzero}
   ]]>
  </style>
 </defs>
 <g id="Layer_x0020_1">
  <metadata id="CorelCorpID_0Corel-Layer"/>
  <g id="_2353536849200">
   <polygon class="fil0" points="742.22,234.36 508.54,0 507.87,468.05 741.55,702.39 "/>
   <polygon class="fil0" points="820.23,234.47 1054.58,0.79 1053.91,468.82 819.56,702.5 "/>
   <polygon class="fil0" points="818.68,1326.56 1052.36,1560.9 1053.02,1092.87 819.34,858.51 "/>
   <polygon class="fil0" points="740.67,1326.43 506.32,1560.12 506.99,1092.09 741.33,858.4 "/>
   <polygon class="fil0" points="234.35,818.68 -0,1052.36 429.03,1052.96 663.39,819.29 "/>
   <polygon class="fil0" points="234.46,740.68 0.77,506.33 429.81,506.94 663.5,741.28 "/>
   <polygon class="fil0" points="1326.54,742.23 1560.73,508.69 1560.73,508.54 1131.86,507.93 897.51,741.61 "/>
   <polygon class="fil0" points="1326.43,820.23 1560.1,1054.58 1131.09,1053.98 897.4,819.62 "/>
  </g>
 </g>
</svg>
