<?xml version="1.0" encoding="UTF-8"?>
<!DOCTYPE svg PUBLIC "-//W3C//DTD SVG 1.1//EN" "http://www.w3.org/Graphics/SVG/1.1/DTD/svg11.dtd">
<!-- Creator: CorelDRAW 2020 (64-Bit) -->
<svg xmlns="http://www.w3.org/2000/svg" xml:space="preserve" width="4.36412in" height="4.92347in" version="1.1" style="shape-rendering:geometricPrecision; text-rendering:geometricPrecision; image-rendering:optimizeQuality; fill-rule:evenodd; clip-rule:evenodd"
viewBox="0 0 4358.51 4917.14"
 xmlns:xlink="http://www.w3.org/1999/xlink"
 xmlns:xodm="http://www.corel.com/coreldraw/odm/2003">
 <defs>
  <style type="text/css">
   <![CDATA[
    .fil5 {fill:#FEFEFE;fill-rule:nonzero}
    .fil1 {fill:#E79F50;fill-rule:nonzero}
    .fil4 {fill:#972E2E;fill-rule:nonzero}
    .fil3 {fill:#63A8BF;fill-rule:nonzero}
    .fil0 {fill:#2F2C2D;fill-rule:nonzero}
    .fil6 {fill:#1D1D1E;fill-rule:nonzero}
    .fil2 {fill:#175737;fill-rule:nonzero}
   ]]>
  </style>
 </defs>
 <g id="Layer_x0020_1">
  <metadata id="CorelCorpID_0Corel-Layer"/>
  <g id="_2353459061424">
   <path class="fil0" d="M4358.51 3604.32l0 -11.41 -285.12 0 0 535.38 73.08 0 0 -269.83 174.07 0 0 -11.42 -174.07 0 0 -242.72 212.05 0zm-693 523.96l73.06 0 0 -269.83 174.08 0 0 -11.42 -174.08 0 0 -242.72 212.05 0 0 -11.41 -285.11 0 0 535.38zm-263.38 -129.92c-16.48,39.98 -39.76,70.91 -69.84,92.8 -30.1,21.89 -64.72,32.83 -103.88,32.83 -39.16,0 -73.67,-10.95 -103.52,-32.83 -29.85,-21.89 -53,-52.82 -69.48,-92.8 -16.48,-39.98 -24.72,-85.89 -24.72,-137.78 0,-51.87 8.24,-97.79 24.72,-137.77 16.48,-39.98 39.63,-70.91 69.48,-92.8 29.85,-21.89 64.36,-32.83 103.52,-32.83 39.16,0 73.78,10.94 103.88,32.83 30.09,21.89 53.36,52.83 69.84,92.8 16.46,39.98 24.72,85.9 24.72,137.77 0,51.89 -8.25,97.8 -24.72,137.78zm-28.66 -378.33c-41.79,-22.84 -90.15,-34.28 -145.06,-34.28 -54.45,0 -102.56,11.43 -144.34,34.28 -41.81,22.83 -74.16,55.08 -97.07,96.72 -22.93,41.64 -34.38,89.58 -34.38,143.83 0,54.25 11.46,102.2 34.38,143.84 22.92,41.66 55.26,73.89 97.07,96.73 41.78,22.83 89.9,34.26 144.34,34.26 54.91,0 103.27,-11.43 145.06,-34.26 41.78,-22.84 74.14,-55.08 97.07,-96.73 22.91,-41.64 34.37,-89.59 34.37,-143.84 0,-54.25 -11.46,-102.19 -34.37,-143.83 -22.93,-41.64 -55.29,-73.89 -97.07,-96.72zm-662.31 374.41c-18.61,38.8 -44.76,68.88 -78.43,90.3 -33.68,21.4 -72.49,32.12 -116.42,32.12l-95.99 0 0 -512.54 95.99 0c43.93,0 82.74,10.71 116.42,32.13 33.67,21.41 59.81,51.52 78.43,90.3 18.63,38.8 27.94,83.41 27.94,133.84 0,50.46 -9.31,95.07 -27.94,133.86zm-32.22 -368c-43.94,-22.36 -94.56,-33.54 -151.88,-33.54l-179.81 0 0 535.38 179.81 0c57.32,0 107.93,-11.18 151.88,-33.55 43.93,-22.36 77.95,-53.77 102.08,-94.23 24.11,-40.45 36.17,-87.08 36.17,-139.92 0,-52.82 -12.07,-99.45 -36.17,-139.92 -24.12,-40.43 -58.15,-71.84 -102.08,-94.23zm-865.17 -22.13l285.12 0 -308.76 516.82 0 7.14 389.71 0 0 -11.43 -310.91 0 312.33 -516.81 0 -7.14 -367.5 0 0 11.41zm-225.89 394.05c-16.46,39.98 -39.75,70.91 -69.84,92.8 -30.09,21.89 -64.72,32.83 -103.87,32.83 -39.17,0 -73.68,-10.95 -103.52,-32.83 -29.85,-21.89 -53.01,-52.82 -69.49,-92.8 -16.47,-39.98 -24.71,-85.89 -24.71,-137.78 0,-51.87 8.24,-97.79 24.71,-137.77 16.47,-39.98 39.64,-70.91 69.49,-92.8 29.84,-21.89 64.35,-32.83 103.52,-32.83 39.14,0 73.78,10.94 103.87,32.83 30.09,21.89 53.38,52.83 69.84,92.8 16.48,39.98 24.72,85.9 24.72,137.77 0,51.89 -8.24,97.8 -24.72,137.78zm-28.66 -378.33c-41.78,-22.84 -90.15,-34.28 -145.05,-34.28 -54.45,0 -102.56,11.43 -144.35,34.28 -41.8,22.83 -74.14,55.08 -97.07,96.72 -22.92,41.64 -34.38,89.58 -34.38,143.83 0,54.25 11.46,102.2 34.38,143.84 22.93,41.66 55.28,73.89 97.07,96.73 41.78,22.83 89.9,34.26 144.35,34.26 54.9,0 103.27,-11.43 145.05,-34.26 41.79,-22.84 74.15,-55.08 97.07,-96.73 22.93,-41.64 34.39,-89.59 34.39,-143.84 0,-54.25 -11.46,-102.19 -34.39,-143.83 -22.92,-41.64 -55.28,-73.89 -97.07,-96.72zm-701.82 423.3l-189.12 -450.43 -75.93 0 232.1 542.52 9.31 0 220.64 -542.52 -15.04 0 -181.95 450.43zm-454.09 50.69c-39.17,15.7 -78.33,23.55 -117.48,23.55 -41.08,0 -77.37,-10.71 -108.89,-32.13 -31.52,-21.42 -55.88,-51.5 -73.07,-90.3 -17.2,-38.78 -25.79,-83.62 -25.79,-134.56 0,-50.91 8.59,-95.75 25.79,-134.55 17.19,-38.78 41.42,-68.9 72.71,-90.32 31.28,-21.4 67.45,-32.11 108.53,-32.11 30.56,0 61.49,5.71 92.77,17.13 31.27,11.43 57.18,26.41 77.73,44.97l5.01 -6.42c-21.97,-21.89 -51.11,-39.61 -87.4,-53.18 -36.3,-13.57 -73.07,-20.35 -110.32,-20.35 -52.06,0 -97.91,11.43 -137.54,34.28 -39.65,22.83 -70.46,55.08 -92.41,96.72 -21.97,41.64 -32.95,89.58 -32.95,143.83 0,54.25 10.98,102.2 32.95,143.84 21.96,41.66 52.76,73.89 92.41,96.73 39.63,22.83 85.48,34.26 137.54,34.26 39.63,0 79.15,-6.78 118.56,-20.35 39.39,-13.57 71.03,-31.28 94.91,-53.18l0 -217.72 -73.07 0 0 249.85z"/>
   <path class="fil1" d="M2179.25 1516.67c0,-418.82 339.52,-758.34 758.34,-758.34 -418.82,0 -758.34,-339.51 -758.34,-758.33 0,418.82 -339.51,758.33 -758.33,758.33 418.82,0 758.33,339.52 758.33,758.34z"/>
   <path class="fil2" d="M1420.91 2275.01c0,-418.82 339.51,-758.34 758.33,-758.34 -418.82,0 -758.33,-339.52 -758.33,-758.34 0,418.82 -339.53,758.34 -758.34,758.34 418.82,0 758.34,339.52 758.34,758.34z"/>
   <path class="fil3" d="M2179.25 3033.34c0,-418.82 339.52,-758.33 758.34,-758.33 -418.82,0 -758.34,-339.52 -758.34,-758.34 0,418.82 -339.51,758.34 -758.33,758.34 418.82,0 758.33,339.51 758.33,758.33z"/>
   <path class="fil4" d="M2937.59 2275.01c0,-418.82 339.52,-758.34 758.33,-758.34 -418.81,0 -758.33,-339.52 -758.33,-758.34 0,418.82 -339.52,758.34 -758.34,758.34 418.82,0 758.34,339.52 758.34,758.34z"/>
   <path class="fil5" d="M2967.92 1435.79c0,-19.73 -10.07,-40.45 -30.17,-40.45 -0.06,0 -0.11,0 -0.17,0 -0.06,0 -0.11,0 -0.18,0 -20.04,0 -30.15,20.72 -30.15,40.45 0,50.55 30.33,80.88 30.33,80.88 0,0 30.33,-30.33 30.33,-80.88z"/>
   <path class="fil5" d="M2907.25 1597.57c0,19.71 10.06,40.44 30.15,40.44 0.07,0 0.13,0 0.18,0 0.06,0 0.11,0 0.17,0 20.06,0 30.17,-20.73 30.17,-40.44 0,-50.56 -30.33,-80.9 -30.33,-80.9 0,0 -30.33,30.34 -30.33,80.9z"/>
   <path class="fil5" d="M2856.69 1486.33c-19.71,0 -40.45,10.06 -40.45,30.17 0,0.06 0,0.11 0.02,0.17 -0.02,0.06 -0.02,0.11 -0.02,0.18 0,20.05 20.74,30.16 40.45,30.16 50.56,0 80.9,-30.34 80.9,-30.34 0,0 -30.33,-30.33 -80.9,-30.33z"/>
   <path class="fil5" d="M3018.47 1547.01c19.71,0 40.45,-10.06 40.45,-30.16 0,-0.07 0,-0.13 0,-0.18 0,-0.06 0,-0.11 0,-0.17 0,-20.06 -20.74,-30.17 -40.45,-30.17 -50.55,0 -80.88,30.33 -80.88,30.33 0,0 30.33,30.34 80.88,30.34z"/>
   <path class="fil5" d="M2179.25 716.77c8.48,-16.27 19.32,-31.72 31.97,-45.73 2.26,-44.82 -8.28,-90.76 -31.82,-125.04 -0.06,0.09 -0.1,0.15 -0.15,0.24 -0.04,-0.08 -0.1,-0.15 -0.15,-0.24 -23.52,34.28 -34.08,80.22 -31.82,125.04 12.66,14.01 23.5,29.46 31.97,45.73z"/>
   <path class="fil5" d="M2179.25 779.69c-8.47,16.25 -19.31,31.72 -31.97,45.72 -2.26,44.82 8.29,90.76 31.82,125.04 0.06,-0.07 0.11,-0.15 0.15,-0.24 0.06,0.08 0.1,0.17 0.15,0.24 23.54,-34.27 34.08,-80.22 31.82,-125.04 -12.65,-13.99 -23.5,-29.46 -31.97,-45.72z"/>
   <path class="fil5" d="M2210.71 748.23c16.27,8.47 31.72,19.31 45.72,31.96 44.83,2.26 90.77,-8.28 125.05,-31.82 -0.09,-0.04 -0.15,-0.09 -0.24,-0.14 0.08,-0.06 0.15,-0.1 0.24,-0.15 -34.28,-23.52 -80.22,-34.08 -125.05,-31.82 -14,12.65 -29.45,23.5 -45.72,31.97z"/>
   <path class="fil5" d="M2147.8 748.23c-16.27,-8.48 -31.74,-19.32 -45.73,-31.97 -44.83,-2.26 -90.77,8.3 -125.04,31.82 0.07,0.06 0.15,0.1 0.24,0.15 -0.08,0.04 -0.17,0.1 -0.24,0.14 34.26,23.54 80.2,34.08 125.04,31.82 13.99,-12.65 29.46,-23.49 45.73,-31.96z"/>
   <path class="fil5" d="M2157.01 725.98c-5.5,-17.49 -8.78,-36.09 -9.74,-54.94 -30.09,-33.29 -70.04,-58.31 -110.92,-65.92 0.02,0.1 0.04,0.19 0.07,0.28 -0.1,-0.01 -0.18,-0.04 -0.28,-0.06 7.6,40.86 32.62,80.81 65.92,110.91 18.85,0.96 37.44,4.22 54.94,9.72z"/>
   <path class="fil5" d="M2201.5 770.46c5.5,17.51 8.76,36.09 9.72,54.94 30.1,33.29 70.05,58.31 110.91,65.92 -0.02,-0.09 -0.04,-0.18 -0.06,-0.28 0.08,0.03 0.18,0.04 0.28,0.07 -7.6,-40.88 -32.62,-80.83 -65.93,-110.92 -18.84,-0.96 -37.44,-4.23 -54.93,-9.74z"/>
   <path class="fil5" d="M2201.5 725.98c17.49,-5.5 36.09,-8.76 54.93,-9.72 33.3,-30.1 58.33,-70.05 65.93,-110.91 -0.09,0.02 -0.19,0.04 -0.28,0.06 0.01,-0.08 0.04,-0.18 0.06,-0.28 -40.86,7.6 -80.81,32.62 -110.91,65.92 -0.96,18.85 -4.22,37.45 -9.72,54.94z"/>
   <path class="fil5" d="M2157.01 770.46c-17.51,5.5 -36.09,8.78 -54.94,9.74 -33.29,30.09 -58.31,70.04 -65.92,110.92 0.09,-0.03 0.18,-0.04 0.28,-0.07 -0.03,0.1 -0.06,0.18 -0.07,0.28 40.88,-7.6 80.83,-32.62 110.92,-65.92 0.96,-18.85 4.23,-37.44 9.74,-54.94z"/>
   <polygon class="fil5" points="2169.13,2143.57 2108.47,2082.9 2108.47,2204.23 2169.13,2264.9 "/>
   <polygon class="fil5" points="2189.36,2143.57 2250.03,2082.9 2250.03,2204.23 2189.36,2264.9 "/>
   <polygon class="fil5" points="2189.36,2426.68 2250.03,2487.34 2250.03,2366.01 2189.36,2305.35 "/>
   <polygon class="fil5" points="2169.13,2426.68 2108.47,2487.34 2108.47,2366.01 2169.13,2305.35 "/>
   <polygon class="fil5" points="2037.69,2295.24 1977.03,2355.9 2088.25,2355.9 2148.91,2295.24 "/>
   <polygon class="fil5" points="2037.69,2275.01 1977.03,2214.34 2088.25,2214.34 2148.91,2275.01 "/>
   <polygon class="fil5" points="2320.8,2275.01 2381.47,2214.34 2270.25,2214.34 2209.58,2275.01 "/>
   <polygon class="fil5" points="2320.8,2295.24 2381.47,2355.9 2270.25,2355.9 2209.58,2295.24 "/>
   <path class="fil5" d="M1420.72 1638c0.07,-0.07 0.13,-0.17 0.18,-0.25 0.07,0.08 0.13,0.18 0.19,0.25 53.68,-67.01 53.68,-175.65 0,-242.66 -0.07,0.08 -0.12,0.17 -0.19,0.26 -0.06,-0.1 -0.11,-0.18 -0.18,-0.26 -53.67,67.01 -53.67,175.65 0,242.66z"/>
   <path class="fil5" d="M1299.58 1516.49c0.08,0.07 0.17,0.13 0.26,0.18 -0.09,0.07 -0.17,0.13 -0.26,0.2 67.01,53.68 175.66,53.68 242.67,0 -0.08,-0.07 -0.17,-0.13 -0.26,-0.2 0.1,-0.06 0.18,-0.11 0.26,-0.18 -67.01,-53.68 -175.66,-53.68 -242.67,0z"/>
   <path class="fil6" d="M970.73 4584.69l17.65 -3.66c6.83,20.49 24.65,30.31 55.62,30.31 28.65,0 41.81,-6.49 41.81,-21.15 0,-12.31 -8.66,-17.98 -30.48,-19.97l-38.3 -3.66c-27.15,-2.5 -39.63,-12.83 -39.63,-32.14 0,-22.48 20.98,-35.3 58.62,-35.3 37.13,0 58.12,12.15 67.11,36.13l-17.32 4.82c-6.83,-17.65 -21.66,-26.82 -50.3,-26.82 -26.14,0 -40.3,7 -40.3,19.98 0,12 7.33,16.66 28.97,18.83l36.63 3.67c30.15,2.98 42.97,12.65 42.97,32.81 0,24.3 -20.15,37.13 -59.95,37.13 -41.29,0 -64.61,-12.98 -73.1,-40.98z"/>
   <polygon class="fil6" points="1203.57,4557.05 1163.1,4589.19 1163.1,4621.49 1145.78,4621.49 1145.78,4503.27 1163.1,4503.27 1163.1,4570.55 1248.86,4503.27 1273,4503.27 1217.73,4546.4 1278.5,4621.49 1256.19,4621.49 "/>
   <polygon class="fil6" points="1315.99,4621.49 1333.31,4621.49 1333.31,4503.27 1315.99,4503.27 "/>
   <path class="fil6" d="M1486.37 4559.72l56.62 0c20.99,0 27.48,-11.33 27.48,-21.65 0,-9.82 -6.16,-20.65 -27.31,-20.65l-56.79 0 0 42.31zm52.29 14.15l-52.29 0 0 47.62 -17.32 0 0 -118.22 77.11 0c32.64,0 42.29,18.81 42.29,34.8 0,13.32 -7.66,29.14 -30.31,33.48l35.15 49.94 -20.98 0 -33.64 -47.62z"/>
   <polygon class="fil6" points="1747.03,4607.34 1747.03,4621.49 1633.78,4621.49 1633.78,4503.27 1745.86,4503.27 1745.86,4517.42 1651.09,4517.42 1651.09,4553.89 1743.02,4553.89 1743.02,4568.04 1651.09,4568.04 1651.09,4607.34 "/>
   <path class="fil6" d="M1776.86 4584.69l17.64 -3.66c6.84,20.49 24.65,30.31 55.63,30.31 28.64,0 41.79,-6.49 41.79,-21.15 0,-12.31 -8.66,-17.98 -30.46,-19.97l-38.31 -3.66c-27.15,-2.5 -39.63,-12.83 -39.63,-32.14 0,-22.48 20.99,-35.3 58.62,-35.3 37.13,0 58.1,12.15 67.11,36.13l-17.32 4.82c-6.83,-17.65 -21.64,-26.82 -50.28,-26.82 -26.15,0 -40.3,7 -40.3,19.98 0,12 7.33,16.66 28.96,18.83l36.65 3.67c30.13,2.98 42.96,12.65 42.96,32.81 0,24.3 -20.16,37.13 -59.95,37.13 -41.29,0 -64.61,-12.98 -73.1,-40.98z"/>
   <path class="fil6" d="M2075.3 4562.39c0,-29.16 -24.32,-48.97 -59.79,-48.97 -35.64,0 -59.78,19.81 -59.78,48.97 0,28.96 24.15,48.95 59.78,48.95 35.47,0 59.79,-19.81 59.79,-48.95zm-137.71 0c0,-37.82 31.64,-63.28 77.93,-63.28 46.3,0 77.94,25.46 77.94,63.28 0,37.63 -31.64,63.28 -77.94,63.28 -46.29,0 -77.93,-25.65 -77.93,-63.28z"/>
   <path class="fil6" d="M2148.42 4559.72l56.62 0c20.98,0 27.48,-11.33 27.48,-21.65 0,-9.82 -6.16,-20.65 -27.31,-20.65l-56.79 0 0 42.31zm52.29 14.15l-52.29 0 0 47.62 -17.31 0 0 -118.22 77.11 0c32.64,0 42.29,18.81 42.29,34.8 0,13.32 -7.66,29.14 -30.31,33.48l35.14 49.94 -20.99 0 -33.64 -47.62z"/>
   <polygon class="fil6" points="2402.25,4517.75 2346.13,4517.75 2346.13,4621.49 2328.81,4621.49 2328.81,4517.75 2272.68,4517.75 2272.68,4503.27 2402.25,4503.27 "/>
   <path class="fil6" d="M2925.89 4584.69l17.66 -3.66c6.83,20.49 24.65,30.31 55.63,30.31 28.63,0 41.79,-6.49 41.79,-21.15 0,-12.31 -8.66,-17.98 -30.48,-19.97l-38.3 -3.66c-27.15,-2.5 -39.63,-12.83 -39.63,-32.14 0,-22.48 20.97,-35.3 58.62,-35.3 37.13,0 58.1,12.15 67.11,36.13l-17.32 4.82c-6.83,-17.65 -21.64,-26.82 -50.28,-26.82 -26.16,0 -40.31,7 -40.31,19.98 0,12 7.33,16.66 28.97,18.83l36.63 3.67c30.14,2.98 42.97,12.65 42.97,32.81 0,24.3 -20.16,37.13 -59.95,37.13 -41.31,0 -64.61,-12.98 -73.11,-40.98z"/>
   <path class="fil6" d="M3203.03 4540.4c0,-14.49 -10.82,-22.98 -28.81,-22.98l-55.96 0 0 46.97 55.79 0c17.82,0 28.98,-9.17 28.98,-23.99zm17.99 0c0,23.16 -18.82,38.14 -47.63,38.14l-55.12 0 0 42.96 -17.31 0 0 -118.22 76.43 0c26.66,0 43.64,14.32 43.64,37.13z"/>
   <path class="fil6" d="M3336.44 4581.53l-18.98 -34.47c-8.17,-14.32 -12.17,-21.15 -15.83,-31.47l-0.33 0c-3.66,10.31 -7.49,17.14 -15.65,31.47l-18.99 34.47 69.77 0zm7.67 14l-85.26 0 -14.33 25.96 -18.64 0 66.78 -118.22 17.81 0 66.79 118.22 -18.82 0 -14.32 -25.96z"/>
   <path class="fil6" d="M1821.55 4831.88c0,-14.5 -10.82,-22.99 -28.81,-22.99l-55.96 0 0 46.97 55.79 0c17.81,0 28.97,-9.16 28.97,-23.98zm17.98 0c0,23.14 -18.81,38.13 -47.62,38.13l-55.12 0 0 42.96 -17.31 0 0 -118.22 76.43 0c26.65,0 43.62,14.31 43.62,37.13z"/>
   <path class="fil6" d="M1954.96 4873l-18.98 -34.47c-8.17,-14.31 -12.16,-21.15 -15.83,-31.47l-0.33 0c-3.66,10.32 -7.51,17.16 -15.65,31.47l-19 34.47 69.78 0zm7.66 13.99l-85.26 0 -14.32 25.97 -18.64 0 66.76 -118.22 17.82 0 66.78 118.22 -18.81 0 -14.33 -25.97z"/>
   <polygon class="fil6" points="2031.59,4794.74 2048.91,4794.74 2048.91,4897.99 2139.17,4897.99 2139.17,4912.96 2031.59,4912.96 "/>
   <path class="fil6" d="M2276.91 4873l-18.98 -34.47c-8.17,-14.31 -12.17,-21.15 -15.83,-31.47l-0.33 0c-3.66,10.32 -7.49,17.16 -15.65,31.47l-18.99 34.47 69.77 0zm7.66 13.99l-85.25 0 -14.33 25.97 -18.66 0 66.79 -118.22 17.82 0 66.78 118.22 -18.82 0 -14.33 -25.97z"/>
   <path class="fil6" d="M2331.23 4853.86c0,-37.81 31.14,-63.29 77.59,-63.29 37.48,0 62.63,15.99 70.29,44.64l-18.33 2c-6.16,-20.82 -24.81,-32.31 -52.96,-32.31 -36.13,0 -58.61,18.81 -58.61,48.96 0,28.97 23.65,48.79 59.27,48.79 27.48,0 45.13,-9.98 52.96,-29.47l17.49 3c-10.33,26.81 -34.47,40.97 -71.45,40.97 -46.79,0 -76.26,-24.99 -76.26,-63.28z"/>
   <polygon class="fil6" points="2631.51,4898.82 2631.51,4912.96 2518.27,4912.96 2518.27,4794.74 2630.35,4794.74 2630.35,4808.89 2535.59,4808.89 2535.59,4845.36 2627.52,4845.36 2627.52,4859.5 2535.59,4859.5 2535.59,4898.82 "/>
   <path class="fil0" d="M2505.91 4649.1c0,-21.76 30.2,-50.77 97.93,-93.49 0.81,29.82 11.42,54 31,73.34l2.44 2.43c-44.87,20.94 -81.59,31.44 -109.33,31.44 -16.33,0 -22.04,-4.04 -22.04,-13.71zm164.83 -193.42c23.66,-18.55 47.33,-27.41 70.98,-27.41 8.99,0 11.43,2.42 11.43,8.06 0,9.67 -26.1,29.02 -101.17,74.94l-32.64 19.36c6.52,-26.6 25.29,-54.81 51.41,-74.95zm95.48 204.7c-39.99,0 -78.34,-9.66 -104.45,-26.59l11.43 -5.65c48.95,-25.79 91.38,-53.99 128.1,-84.62l-8.15 -9.68c-36.72,30.63 -78.33,58.04 -125.67,83.02 -8.14,4.04 -13.87,6.45 -17.13,8.86l-6.52 -5.64c-17.96,-17.73 -26.93,-41.1 -26.93,-69.3l0 -3.23 42.45 -25.79c87.29,-53.2 104.43,-66.08 106.89,-85.43 0,-12.9 -8.17,-20.96 -24.5,-20.96 -25.29,0 -53.03,11.29 -78.33,29.82 -32.64,25.8 -55.48,60.45 -58.74,95.1 -58.74,36.27 -111.79,74.96 -111.79,108.8 0,16.92 12.25,26.59 35.09,26.59 31,0 70.99,-11.27 120.76,-34.65 28.55,20.16 70.99,32.24 117.5,32.24l0 -12.9z"/>
  </g>
 </g>
</svg>
